<?xml version="1.0" encoding="UTF-8" standalone="no"?>
<svg
   height="480"
   width="480"
   version="1.0"
   id="svg14"
   sodipodi:docname="info.svg"
   inkscape:version="1.1.2 (b8e25be833, 2022-02-05)"
   xmlns:inkscape="http://www.inkscape.org/namespaces/inkscape"
   xmlns:sodipodi="http://sodipodi.sourceforge.net/DTD/sodipodi-0.dtd"
   xmlns="http://www.w3.org/2000/svg"
   xmlns:svg="http://www.w3.org/2000/svg">
  <defs
     id="defs18" />
  <sodipodi:namedview
     id="namedview16"
     pagecolor="#505050"
     bordercolor="#eeeeee"
     borderopacity="1"
     inkscape:pageshadow="0"
     inkscape:pageopacity="0"
     inkscape:pagecheckerboard="0"
     showgrid="false"
     inkscape:zoom="1.1343171"
     inkscape:cx="25.125249"
     inkscape:cy="348.66793"
     inkscape:window-width="1920"
     inkscape:window-height="974"
     inkscape:window-x="-11"
     inkscape:window-y="-11"
     inkscape:window-maximized="1"
     inkscape:current-layer="svg14" />
  <g
     fill="#ffffff"
     id="g8"
     transform="matrix(3.435964,0,0,3.435964,-36.539461,-36.539461)"
     style="fill:#000080">
    <path
       d="m 80,15 c -35.88,0 -65,29.12 -65,65 0,35.88 29.12,65 65,65 35.88,0 65,-29.12 65,-65 0,-35.88 -29.12,-65 -65,-65 z m 0,10 c 30.36,0 55,24.64 55,55 0,30.36 -24.64,55 -55,55 C 49.64,135 25,110.36 25,80 25,49.64 49.64,25 80,25 Z"
       id="path2"
       style="fill:#000080" />
    <path
       d="m 57.373,18.231 a 9.3835,9.1153971 0 1 1 -18.767,0 9.3835,9.1153971 0 1 1 18.767,0 z"
       transform="matrix(1.1989,0,0,1.2342,21.214,28.75)"
       id="path4"
       style="fill:#000080" />
    <path
       d="m 90.665,110.96 c -0.069,2.73 1.211,3.5 4.327,3.82 l 5.008,0.1 V 120 H 60.927 v -5.12 l 5.503,-0.1 c 3.291,-0.1 4.082,-1.38 4.327,-3.82 V 80.147 C 70.792,75.268 64.461,76.034 60,76.179 V 71.105 L 90.665,70"
       id="path6"
       style="fill:#000080" />
  </g>
  <g
     transform="matrix(0.07164274,0,0,-0.07164274,129.26091,345.77538)"
     fill="#000000"
     stroke="none"
     id="g12"
     style="fill:#000000">
    <path
       d="m 1360,1654 c -6,-14 -42,-191 -81,-392 -38,-202 -77,-404 -86,-450 l -16,-83 -103,101 C 940,962 948,964 843,788 L 785,691 491,690 H 198 l -30,25 C 127,749 72,749 31,714 4,691 0,682 0,635 c 0,-43 5,-57 26,-79 38,-37 110,-37 147,0 25,25 29,25 149,24 68,-1 214,-1 326,-1 l 202,1 61,94 60,95 112,-115 c 62,-63 120,-114 130,-114 42,0 53,31 101,281 76,396 80,415 83,399 2,-8 32,-251 68,-540 90,-719 79,-670 140,-670 40,0 38,-6 146,330 l 75,235 84,3 c 96,3 98,4 182,110 28,35 54,62 59,60 5,-2 39,-41 76,-87 l 68,-84 251,2 251,2 38,-25 c 48,-33 85,-33 124,0 58,48 49,128 -17,167 -29,17 -39,18 -73,8 -22,-7 -43,-19 -46,-27 -4,-12 -44,-14 -238,-14 h -233 l -87,110 c -113,144 -114,144 -221,14 -43,-53 -81,-100 -84,-104 -3,-4 -49,-9 -104,-12 -83,-3 -101,-7 -113,-24 -7,-10 -37,-91 -65,-179 l -52,-160 -81,657 c -50,398 -87,664 -95,673 -7,8 -28,15 -46,15 -28,0 -36,-5 -44,-26 z m 77,-34 c 9,-73 135,-1089 144,-1168 13,-104 36,-149 62,-122 8,8 36,80 62,160 26,80 52,151 58,158 6,8 38,12 95,12 h 85 l 46,48 c 25,26 68,73 94,105 32,38 55,57 70,57 16,-1 46,-30 105,-105 l 82,-105 h 225 225 v -25 -25 h -244 -245 l -66,85 c -40,51 -74,85 -85,85 -10,0 -43,-31 -75,-71 -79,-95 -85,-99 -176,-99 -55,0 -80,-4 -89,-15 -7,-8 -47,-124 -90,-259 -43,-134 -84,-257 -91,-272 -18,-35 -35,-41 -48,-16 -6,11 -42,275 -82,587 -72,577 -82,631 -115,604 -20,-17 -36,-80 -94,-386 -49,-255 -54,-273 -73,-273 -14,0 -60,38 -128,106 -81,81 -111,105 -125,100 -19,-6 -27,-17 -94,-123 L 837,610 H 523 210 v 25 25 h 290 290 l 26,37 c 14,21 48,73 75,116 31,49 55,77 66,77 10,0 61,-43 113,-95 52,-52 98,-95 102,-95 15,0 38,48 48,101 5,30 12,65 14,79 3,14 28,144 55,290 58,304 91,461 98,473 11,18 46,2 50,-23 z M 139,705 c 33,-16 41,-33 41,-80 0,-64 -79,-97 -133,-55 -33,26 -41,63 -22,101 24,46 67,59 114,34 z m 2811,-15 c 51,-51 26,-122 -45,-128 -49,-4 -85,27 -85,74 0,62 86,98 130,54 z"
       id="path10"
       style="fill:#000000" />
  </g>
  <path
     style="fill:#ffffff;stroke-width:0.623377"
     d="m 242.86006,342.07792 c -0.53485,-1.7119 -2.54465,-15.99066 -5.63748,-40.05195 -3.42334,-26.63254 -5.63121,-41.47874 -6.51262,-43.7922 -0.91446,-2.40022 -2.4387,-2.13687 -3.6081,0.62337 -0.5447,1.28572 -2.77514,11.22747 -4.95653,22.09279 -3.99444,19.89592 -4.75136,22.94617 -5.69411,22.94617 -0.28309,0 -2.53419,-1.71256 -5.00245,-3.80569 -4.33616,-3.67715 -4.48773,-3.90018 -4.48773,-6.6035 v -2.79781 l 3.10227,2.59737 c 1.70626,1.42856 3.39137,2.41871 3.7447,2.20034 1.63111,-1.00808 2.7695,-5.602 7.44842,-30.05752 7.34096,-38.36942 7.64761,-39.50416 9.93184,-36.75184 0.38036,0.45832 3.0749,20.16481 5.98785,43.79221 2.91296,23.6274 5.60262,44.22125 5.97703,45.76411 0.37441,1.54285 1.10681,3.27718 1.62756,3.85406 2.01695,2.23434 2.77702,0.89182 7.68202,-13.56877 3.51695,-10.36845 2.74147,-9.60997 9.82531,-9.60997 h 6.03639 l 3.29233,-3.25143 3.29233,-3.25143 v 2.83108 c 0,4.70599 -3.34347,6.72724 -11.22078,6.78334 -3.75117,0.0267 -4.48084,0.31994 -5.44245,2.18714 -0.35314,0.68572 -3.23093,9.1013 -6.39508,18.7013 -3.16416,9.6 -6.14966,18.08572 -6.63445,18.85714 -1.05731,1.68247 -1.89344,1.79307 -2.35627,0.31169 z"
     id="path111" />
  <path
     style="fill:#ffffff;stroke-width:0.623377"
     d="m 333.16647,303.61275 c -0.84658,-0.84658 -1.53011,-2.26036 -1.53011,-3.16483 0,-2.16702 3.12364,-5.27909 5.2987,-5.27909 2.17507,0 5.29871,3.11207 5.29871,5.27909 0,2.41155 -2.57703,4.69494 -5.29871,4.69494 -1.54549,0 -2.71217,-0.47369 -3.76859,-1.53011 z"
     id="path226" />
  <path
     style="fill:#ffffff;stroke-width:0.623377"
     d="m 132.55856,304.23756 c -2.34314,-2.17155 -2.27173,-5.42549 0.17271,-7.86993 2.05807,-2.05807 2.93357,-2.196 5.947,-0.93691 1.60603,0.67104 2.27096,1.43656 2.74776,3.16339 0.71419,2.58658 0.43421,3.76754 -1.36784,5.76953 -1.76683,1.96284 -5.30992,1.90328 -7.49963,-0.12608 z"
     id="path265" />
  <path
     style="fill:#ffffff;stroke-width:0.623377"
     d="m 144.62338,300.46753 v -1.55844 l 20.72727,-0.008 20.72727,-0.008 5.2987,-7.94021 c 2.91429,-4.36711 5.75799,-8.02481 6.31933,-8.12822 0.56134,-0.10341 2.73537,1.39953 4.83117,3.33987 3.58691,3.32085 3.81054,3.69389 3.81054,6.35637 v 2.82847 l -3.39125,-3.20731 c -1.86519,-1.76402 -3.56675,-3.20731 -3.78124,-3.20731 -1.37675,0 -3.17188,1.9572 -6.57092,7.16413 l -3.86895,5.92678 h -22.05096 -22.05096 z"
     id="path304" />
  <path
     style="fill:#ffffff;stroke-width:0.623377"
     d="m 291.74237,298.44156 c -4.07606,-5.24293 -7.53053,-8.88312 -8.42994,-8.88312 -0.43369,0 -2.3616,1.69911 -4.28424,3.77579 l -3.49572,3.7758 v -2.90279 c 0,-2.69748 0.26065,-3.17247 3.6853,-6.71574 3.46282,-3.58275 3.77556,-3.76465 5.18021,-3.0129 0.8222,0.44003 3.96318,3.8669 6.97995,7.61527 l 5.48504,6.81522 h 16.13995 16.13994 v 1.55844 1.55844 h -17.30692 -17.30691 z"
     id="path343" />
</svg>
