<?xml version="1.0" encoding="UTF-8" standalone="no"?>
<svg
   version="1.0"
   width="300.000000pt"
   height="332.000000pt"
   viewBox="0 0 300.000000 332.000000"
   preserveAspectRatio="xMidYMid meet"
   id="svg39"
   sodipodi:docname="milkCarton.svg"
   inkscape:version="1.1.2 (b8e25be833, 2022-02-05)"
   xmlns:inkscape="http://www.inkscape.org/namespaces/inkscape"
   xmlns:sodipodi="http://sodipodi.sourceforge.net/DTD/sodipodi-0.dtd"
   xmlns="http://www.w3.org/2000/svg"
   xmlns:svg="http://www.w3.org/2000/svg">
  <defs
     id="defs43" />
  <sodipodi:namedview
     id="namedview41"
     pagecolor="#505050"
     bordercolor="#eeeeee"
     borderopacity="1"
     inkscape:pageshadow="0"
     inkscape:pageopacity="0"
     inkscape:pagecheckerboard="0"
     inkscape:document-units="pt"
     showgrid="false"
     inkscape:zoom="1.6626506"
     inkscape:cx="343.12681"
     inkscape:cy="221.33333"
     inkscape:window-width="1920"
     inkscape:window-height="974"
     inkscape:window-x="-11"
     inkscape:window-y="-11"
     inkscape:window-maximized="1"
     inkscape:current-layer="svg39" />
  <metadata
     id="metadata27">
Created by potrace 1.10, written by Peter Selinger 2001-2011
</metadata>
  <g
     transform="matrix(0.11492749,0,0,-0.11492749,-22.495521,356.31192)"
     fill="#000000"
     stroke="none"
     id="g37">
    <path
       d="m 2055,3073 c -44,-2 -359,-4 -700,-5 l -620,-3 -53,-24 c -92,-41 -92,-43 -92,-278 V 2559 L 463,2407 C 392,2323 305,2222 268,2181 l -68,-74 V 1163 220 h 1300 1300 v 918 c 0,504 3,926 5,937 5,20 -14,47 -89,125 -66,68 -318,375 -327,398 -5,13 -9,102 -9,197 0,167 -1,175 -22,198 -13,13 -33,29 -46,36 -42,23 -123,42 -144,35 -11,-3 -23,-2 -27,2 -3,5 -42,8 -86,7 z m 121,-54 c 32,-7 66,-13 74,-14 34,-4 57,-17 68,-38 8,-14 13,-95 14,-220 l 3,-197 H 1489 643 l -7,53 c -3,28 -6,120 -6,203 0,134 2,153 18,167 19,17 93,42 147,50 17,2 321,5 676,6 448,1 663,-2 705,-10 z m 214,-480 c 0,-5 -7,-6 -15,-3 -8,4 -15,13 -15,21 0,13 3,13 15,3 8,-7 15,-16 15,-21 z m 155,-206 c 77,-93 153,-180 168,-195 l 29,-28 H 1494 c -1074,1 -1245,3 -1224,15 14,7 93,95 175,194 l 150,181 h 905 905 z m 208,-1173 2,-900 H 1500 245 l 2,892 c 2,491 5,898 7,903 2,7 426,9 1250,8 l 1246,-3 z"
       id="path29" />
    <path
       d="m 1730,1641 c 0,-24 16,-41 96,-107 l 95,-79 -33,-29 c -116,-101 -158,-142 -158,-153 0,-25 37,-13 78,25 23,22 43,38 45,36 1,-2 24,19 51,46 l 49,49 71,-59 c 40,-33 82,-71 96,-85 32,-34 77,-34 63,1 -3,7 -48,48 -100,90 -74,61 -91,80 -81,89 7,6 50,42 96,79 61,51 82,74 82,92 0,13 -2,24 -5,24 -2,0 -53,-40 -111,-89 l -107,-90 -99,81 c -54,44 -98,84 -98,88 0,4 -7,10 -15,14 -11,4 -15,-2 -15,-23 z"
       id="path31" />
    <path
       d="m 738,1630 c 3,-23 25,-46 98,-106 52,-42 94,-78 94,-79 0,-1 -43,-38 -95,-81 -92,-75 -117,-112 -75,-109 10,1 45,24 77,52 32,28 74,64 93,81 l 34,30 71,-58 c 38,-32 80,-69 93,-82 12,-14 32,-24 45,-23 12,1 21,4 20,6 -1,2 -5,11 -8,20 -3,9 -47,49 -96,89 -72,58 -87,76 -77,85 7,6 49,41 93,77 61,50 80,72 81,92 2,36 -9,33 -64,-18 -26,-25 -72,-65 -101,-89 l -55,-45 -97,79 c -54,44 -103,86 -109,94 -19,23 -27,18 -22,-15 z"
       id="path33" />
    <path
       d="m 973,814 c -3,-8 -1,-20 4,-25 5,-5 209,-8 519,-7 501,3 509,3 509,23 0,20 -8,20 -513,23 -459,2 -513,1 -519,-14 z"
       id="path35" />
  </g>
  <path
     style="fill:#000000;fill-opacity:1;fill-rule:nonzero;stroke:none;stroke-width:0.75"
     id="path226"
     d="m 248.31156,61.57298 c 0.35394,1.340084 1.00621,2.48478 2.14571,3.282825 0.15469,0.07614 0.30938,0.152279 0.46407,0.228419 0,0 4.12149,-2.742022 4.12149,-2.742022 v 0 c -0.14096,-0.05333 -0.28192,-0.106575 -0.42288,-0.159855 -1.10293,-0.64842 -1.67232,-1.71834 -1.94905,-2.952005 0,0 -4.35934,2.342637 -4.35934,2.342638 z" />
</svg>
