<?xml version="1.0" encoding="UTF-8" standalone="no"?>
<svg
   width="752pt"
   height="752pt"
   version="1.1"
   viewBox="0 0 752 752"
   id="svg19"
   sodipodi:docname="download.svg"
   inkscape:version="1.1.2 (b8e25be833, 2022-02-05)"
   xmlns:inkscape="http://www.inkscape.org/namespaces/inkscape"
   xmlns:sodipodi="http://sodipodi.sourceforge.net/DTD/sodipodi-0.dtd"
   xmlns="http://www.w3.org/2000/svg"
   xmlns:svg="http://www.w3.org/2000/svg">
  <defs
     id="defs23" />
  <sodipodi:namedview
     id="namedview21"
     pagecolor="#505050"
     bordercolor="#eeeeee"
     borderopacity="1"
     inkscape:pageshadow="0"
     inkscape:pageopacity="0"
     inkscape:pagecheckerboard="0"
     inkscape:document-units="pt"
     showgrid="false"
     inkscape:zoom="0.73404255"
     inkscape:cx="508.82609"
     inkscape:cy="484.30435"
     inkscape:window-width="1920"
     inkscape:window-height="974"
     inkscape:window-x="-11"
     inkscape:window-y="-11"
     inkscape:window-maximized="1"
     inkscape:current-layer="svg19" />
  <path
     id="path17"
     style="stroke-width:1.33333"
     transform="scale(0.75)"
     d="m 324.78516,207.67188 c -10.66147,0 -19.33399,9.42616 -19.33399,21.00976 v 25.88672 c -0.57292,0.67188 -1.06254,1.42643 -1.4375,2.25976 l -29.85937,66.69727 c -0.78126,1.75 -0.97852,3.60874 -0.69727,5.36914 l -2.54297,128.51172 c -0.37792,19.02864 2.06285,36.68462 7.17578,52.71094 l 1.22657,0.21875 c 1.03153,0.23542 2.05249,0.51728 3.09375,0.70508 1.07544,0.19397 2.30227,0.1281 2.59765,0.0898 0.0317,0.005 0.064,0.007 0.0957,0.0117 1.58954,-1.71521 4.30971,-2.99805 8.47656,-2.99805 1.797,0 2.72245,0.0175 3.78515,0.0254 -5.35555,-14.99811 -7.88531,-31.91073 -7.52148,-50.38476 l 2.38672,-120.45704 h 163.30664 v 78.73438 c 0,5.2344 4.23826,9.47266 9.47266,9.47266 5.2344,0 9.47458,-4.23826 9.47461,-9.47266 v -78.73438 h 21.04687 v 99.78126 c 0,5.23439 4.24021,9.47265 9.47461,9.47265 5.2344,0 9.47266,-4.23829 9.47266,-9.47265 l -0.01,-99.77735 h 32.45898 l -8.57812,143.26758 c -0.8184,10.71724 -1.64256,19.84032 -2.38672,28.07422 1.21427,-0.33346 2.60881,-0.5293 4.19727,-0.5293 h 9.19531 c 8.9e-4,-0.14191 0.20691,-0.21306 0.41601,-0.21289 0.19481,1.6e-4 0.38628,0.0649 0.42383,0.1875 0.23237,-0.0506 0.51934,-0.15698 0.52149,0.0254 h 4.31054 c 0.70174,-7.82982 1.45731,-16.15461 2.23047,-26.26367 l 9.1875,-153.45313 c 0.10417,-1.67706 -0.33398,-3.28576 -1.06836,-4.75976 -0.0208,-0.0469 -0.026,-0.0951 -0.0469,-0.13672 l -0.30274,-0.67187 -29.5625,-66.01954 c -0.36978,-0.82812 -0.85874,-1.57813 -1.43164,-2.25 l 0.006,-25.9082 c 0,-11.58853 -8.67772,-21.00983 -19.33398,-21.00976 z m 189.52539,18.85156 c 0.20833,0.13021 0.77148,0.88019 0.77148,2.15625 v 22.54687 l -190.69336,0.006 -0.002,-22.55273 c 0,-1.27083 0.5625,-2.02663 0.39062,-2.06836 z m -195.52344,43.64648 h 1.57422 l 198.75976,0.006 h 1.56641 l 0.49023,1.08789 21.09961,47.125 -245.0664,-0.004 21.08789,-47.1211 z m 186.21094,182.6836 c -5.2344,0 -9.47266,4.23825 -9.47266,9.47265 v 26.15039 c 0,5.2344 4.23826,9.47461 9.47266,9.47461 5.2344,0 9.47461,-4.24021 9.47461,-9.47461 v -26.15039 c 0,-5.2344 -4.24021,-9.47265 -9.47461,-9.47265 z m 29.89843,68.04296 c -0.0262,0.30655 -0.0579,0.65662 -0.084,0.9629 0.61949,-0.027 1.24023,-0.0419 1.85742,-0.0801 0.5808,-0.0226 1.16256,-0.0166 1.74414,-0.0176 0.0135,-0.0273 0.0388,-0.0528 0.0527,-0.0801 -1.35049,-0.12592 -2.54505,-0.39571 -3.57032,-0.78516 z m 19.20508,38.89063 c -0.13814,0.0319 -0.25193,0.0501 -0.39648,0.0859 0.16568,0.0599 0.30918,0.15066 0.46094,0.23047 -0.02,-0.10539 -0.0444,-0.21103 -0.0645,-0.31641 z m -1.83203,0.48828 c -0.21445,0.065 -0.41707,0.11986 -0.64258,0.19336 0.12265,0.52975 0.28361,1.01453 0.48047,1.44727 0.19366,-0.60531 0.25332,-1.15911 0.16211,-1.64063 z m -54.21289,9.24805 c -1.71123,0.0199 -3.22559,0.60999 -4.60352,1.42187 1.53265,-0.48216 3.06916,-0.94715 4.60352,-1.42187 z m 42.56641,21.84375 c -0.15464,0.11413 -0.29929,0.24037 -0.45313,0.35547 0.13747,1.28872 0.24065,2.55195 0.36133,3.83007 0.0904,-0.14192 0.25185,-0.37866 0.33984,-0.51757 -0.22476,-0.74689 -0.43935,-1.49618 -0.40039,-2.25782 0.0275,-0.53844 0.10542,-0.93267 0.15235,-1.41015 z m -271.06446,44.60742 0.0957,4.40234 c 0.11446,-0.18254 0.34828,-0.55268 0.46484,-0.73828 -0.13022,-0.90094 -0.24609,-1.81657 -0.38476,-2.67773 -0.0531,-0.32963 -0.12472,-0.65604 -0.17579,-0.98633 z m 1.14258,37.28516 c -0.10484,0.0289 -0.21145,0.0516 -0.3164,0.0801 l 0.10156,4.65235 c 0.0237,-1.5436 0.10389,-3.02407 0.17969,-4.15039 0.0211,-0.31314 0.0166,-0.30539 0.0351,-0.58203 z m 432.06055,35.65234 c -0.11911,0.0128 -0.23615,0.044 -0.35547,0.0547 -0.18078,0.17443 -0.35743,0.35363 -0.53711,0.52929 0.29616,-0.19367 0.59664,-0.3905 0.89258,-0.58398 z m -85.98438,19.57617 c -0.039,0.007 -0.0746,0.0126 -0.11328,0.0195 -0.43714,0.38264 -1.07219,0.94273 -1.49609,1.31446 0.50935,-0.37163 1.01389,-0.74974 1.52344,-1.1211 0.0282,-0.0712 0.0584,-0.14133 0.0859,-0.21289 z m -212.85351,51.21484 c -0.72177,0.48528 -1.49266,1.00686 -2.17188,1.43946 1.1509,-0.23266 2.30259,-0.46291 3.45313,-0.69727 -0.4667,-0.29381 -0.86024,-0.50313 -1.28125,-0.74219 z" />
  <path
     id="rect583"
     style="fill:#000000;stroke-width:0.902957"
     transform="scale(0.75)"
     d="m 287.49414,488.67969 c -1.32389,0 -2.39062,1.06673 -2.39062,2.39062 v 17.68164 c 0,1.32389 1.06673,2.39063 2.39062,2.39063 H 531.625 c 1.61003,-1.74347 4.44886,-2.99805 8.53516,-2.99805 h 9.19531 c 8.9e-4,-0.14191 0.20691,-0.21306 0.41601,-0.21289 0.19481,1.6e-4 0.38628,0.0649 0.42383,0.1875 0.23237,-0.0506 0.51934,-0.15698 0.52149,0.0254 H 554.5 v -17.07422 c 0,-1.32389 -1.06673,-2.39062 -2.39062,-2.39062 z" />
</svg>
